<?xml version="1.0" encoding="UTF-8"?>
<svg xmlns="http://www.w3.org/2000/svg" viewBox="0 0 280 40" fill="#212b36">
  <path d="M23 7H8C5.791 7 4 8.791 4 11V29C4 31.209 5.791 33 8 33H23C25.209 33 27 31.209 27 29V11C27 8.791 25.209 7 23 7Z" fill="#3B6DE3"/>
  <path d="M15.5 14L10.5 18H20.5L15.5 26V14Z" fill="white"/>
  <path d="M49.848 11.568C48.872 11.568 48.04 11.744 47.352 12.096C46.68 12.448 46.104 13.008 45.624 13.776V11.904H42.84V29.52H45.768V19.872C45.768 18.608 46.072 17.664 46.68 17.04C47.304 16.416 48.152 16.104 49.224 16.104C49.88 16.104 50.456 16.208 50.952 16.416L51.84 12.312C51.344 11.816 50.68 11.568 49.848 11.568Z" fill="#212b36"/>
  <path d="M59.1938 11.568C57.7618 11.568 56.4578 11.888 55.2818 12.528C54.1058 13.152 53.1778 14.048 52.4898 15.216C51.8178 16.368 51.4818 17.728 51.4818 19.296C51.4818 20.848 51.8338 22.208 52.5378 23.376C53.2418 24.544 54.2178 25.448 55.4658 26.088C56.7138 26.712 58.1298 27.024 59.7138 27.024C61.1458 27.024 62.3698 26.776 63.3858 26.28C64.4178 25.768 65.2338 25.048 65.8338 24.12L63.8178 22.272C63.3378 22.912 62.7538 23.4 62.0658 23.736C61.3778 24.072 60.5938 24.24 59.7138 24.24C58.5698 24.24 57.6098 23.936 56.8338 23.328C56.0738 22.72 55.6418 21.84 55.5378 20.688H66.4338C66.4658 20.432 66.4818 20.064 66.4818 19.584C66.4818 18.064 66.1458 16.72 65.4738 15.552C64.8178 14.384 63.8978 13.48 62.7138 12.84C61.5458 11.992 60.4658 11.568 59.1938 11.568ZM55.5858 18.24C55.7378 17.136 56.1698 16.288 56.8818 15.696C57.5938 15.088 58.4498 14.784 59.4338 14.784C60.3538 14.784 61.1218 15.08 61.7378 15.672C62.3538 16.248 62.7218 17.104 62.8418 18.24H55.5858Z" fill="#212b36"/>
  <path d="M77.6258 11.568C76.3778 11.568 75.3378 11.84 74.5058 12.384C73.6738 12.928 73.0738 13.624 72.7058 14.472V11.904H69.9218V33.6H72.8498V24.816C73.2498 25.504 73.8338 26.08 74.6018 26.544C75.3698 27.008 76.3058 27.24 77.4098 27.24C78.8258 27.24 80.0658 26.888 81.1298 26.184C82.2098 25.48 83.0418 24.504 83.6258 23.256C84.2258 22.008 84.5258 20.584 84.5258 18.984C84.5258 17.384 84.2258 15.96 83.6258 14.712C83.0258 13.464 82.1858 12.496 81.1058 11.808C80.0418 11.648 78.8098 11.568 77.6258 11.568ZM76.7858 24.36C75.6098 24.36 74.6738 23.952 73.9698 23.136C73.2818 22.304 72.9378 21.176 72.9378 19.752C72.9378 18.296 73.2898 17.144 73.9938 16.296C74.6978 15.448 75.6258 15.024 76.7698 15.024C77.9458 15.024 78.8738 15.44 79.5538 16.272C80.2498 17.104 80.5978 18.264 80.5978 19.752C80.5978 21.208 80.2498 22.344 79.5538 23.16C78.8738 23.96 77.9458 24.36 76.7858 24.36Z" fill="#212b36"/>
  <path d="M92.5736 11.568C91.1736 11.568 89.8936 11.888 88.7336 12.528C87.5736 13.152 86.6536 14.048 85.9736 15.216C85.2936 16.368 84.9536 17.728 84.9536 19.296C84.9536 20.848 85.3016 22.208 85.9976 23.376C86.6936 24.544 87.6616 25.448 88.9016 26.088C90.1416 26.712 91.5496 27.024 93.1256 27.024C94.5496 27.024 95.7656 26.776 96.7736 26.28C97.7976 25.768 98.6056 25.048 99.1976 24.12L97.1736 22.272C96.6936 22.912 96.1096 23.4 95.4216 23.736C94.7336 24.072 93.9496 24.24 93.0616 24.24C91.9176 24.24 90.9576 23.936 90.1816 23.328C89.4216 22.72 88.9896 21.84 88.8856 20.688H99.7736C99.8056 20.432 99.8216 20.064 99.8216 19.584C99.8216 18.064 99.4856 16.72 98.8136 15.552C98.1576 14.384 97.2376 13.48 96.0536 12.84C94.9016 11.992 93.8296 11.568 92.5736 11.568ZM88.9736 18.24C89.1256 17.136 89.5576 16.288 90.2696 15.696C90.9816 15.088 91.8376 14.784 92.8216 14.784C93.7416 14.784 94.5096 15.08 95.1256 15.672C95.7416 16.248 96.1096 17.104 96.2296 18.24H88.9736Z" fill="#212b36"/>
  <path d="M111.988 11.568C110.388 11.568 109.02 12.024 107.884 12.936C106.748 13.848 106.012 15.104 105.676 16.704V11.904H102.892V27H105.82V19.392C105.82 17.872 106.204 16.672 106.972 15.792C107.74 14.912 108.78 14.472 110.092 14.472C110.78 14.472 111.468 14.568 112.156 14.76L112.9 11.736C112.612 11.624 112.276 11.568 111.988 11.568Z" fill="#212b36"/>
  <path d="M121.344 11.568C119.872 11.568 118.576 11.896 117.456 12.552C116.336 13.192 115.472 14.096 114.864 15.264C114.256 16.416 113.952 17.744 113.952 19.248C113.952 20.752 114.272 22.096 114.912 23.28C115.552 24.448 116.44 25.352 117.576 25.992C118.728 26.632 120.064 26.952 121.584 26.952C123.104 26.952 124.44 26.632 125.592 25.992C126.744 25.352 127.632 24.448 128.256 23.28C128.896 22.096 129.216 20.752 129.216 19.248C129.216 17.744 128.896 16.416 128.256 15.264C127.616 14.096 126.72 13.192 125.568 12.552C124.416 11.896 123.04 11.568 121.344 11.568ZM121.584 14.976C123.376 14.976 124.272 16.4 124.272 19.248C124.272 22.096 123.376 23.52 121.584 23.52C119.792 23.52 118.896 22.096 118.896 19.248C118.896 16.4 119.792 14.976 121.584 14.976Z" fill="#212b36"/>
  <path d="M139.731 11.568C137.811 11.568 136.323 12.008 135.267 12.888C134.227 13.768 133.707 15.008 133.707 16.608C133.707 17.68 133.955 18.584 134.451 19.32C134.963 20.04 135.603 20.584 136.371 20.952C137.155 21.32 138.139 21.672 139.323 22.008C140.131 22.248 140.739 22.464 141.147 22.656C141.555 22.832 141.859 23.056 142.059 23.328C142.275 23.584 142.387 23.928 142.387 24.36C142.387 25.272 141.667 25.872 140.227 25.872C139.427 25.872 138.747 25.712 138.187 25.392C137.627 25.072 137.035 24.552 136.403 23.832L134.163 25.776C135.667 26.888 137.603 27.504 139.971 27.576C141.923 27.576 143.459 27.12 144.579 26.208C145.715 25.296 146.283 24.064 146.283 22.512C146.283 21.456 146.027 20.56 145.515 19.824C145.019 19.088 144.371 18.536 143.571 18.168C142.787 17.8 141.795 17.448 140.595 17.112C139.787 16.872 139.171 16.664 138.747 16.488C138.339 16.296 138.027 16.072 137.811 15.816C137.611 15.544 137.515 15.2 137.515 14.784C137.515 13.968 138.187 13.344 139.531 12.912C140.347 12.912 140.995 13.088 141.475 13.44C141.971 13.776 142.475 14.28 142.987 14.952L144.987 12.96C143.595 12 141.827 11.568 139.731 11.568Z" fill="#212b36"/>
  <path d="M158.05 11.568C156.61 11.568 155.338 11.896 154.234 12.552C153.13 13.208 152.274 14.12 151.666 15.288C151.058 16.44 150.754 17.768 150.754 19.272C150.754 20.776 151.058 22.104 151.666 23.256C152.274 24.408 153.13 25.312 154.234 25.968C155.338 26.624 156.61 26.952 158.05 26.952C159.506 26.952 160.778 26.624 161.866 25.968C162.97 25.312 163.826 24.408 164.434 23.256C165.042 22.104 165.346 20.776 165.346 19.272C165.346 17.768 165.042 16.44 164.434 15.288C163.826 14.12 162.97 13.208 161.866 12.552C160.778 11.896 159.506 11.568 158.05 11.568ZM158.05 14.952C158.914 14.952 159.602 15.28 160.114 15.936C160.626 16.592 160.882 17.736 160.882 19.368C160.882 20.952 160.626 22.064 160.114 22.704C159.602 23.344 158.914 23.664 158.05 23.664C157.186 23.664 156.498 23.344 155.986 22.704C155.474 22.064 155.218 20.952 155.218 19.368C155.218 17.752 155.474 16.6 155.986 15.912C156.498 15.272 157.186 14.952 158.05 14.952Z" fill="#212b36"/>
  <path d="M173.414 11.568C172.43 11.568 171.574 11.752 170.846 12.12C170.134 12.472 169.518 13.048 168.998 13.848V11.904H166.214V27H169.142V19.848C169.142 18.584 169.446 17.632 170.054 16.992C170.662 16.352 171.51 16.032 172.598 16.032C173.222 16.032 173.79 16.128 174.302 16.32L175.19 12.216C174.67 11.784 174.062 11.568 173.414 11.568Z" fill="#212b36"/>
</svg>