<?xml version="1.0" encoding="UTF-8"?>
<svg xmlns="http://www.w3.org/2000/svg" width="154" height="40" viewBox="0 0 154 40" fill="none">
  <path d="M23.4 0H16V7.4H23.4V0Z" fill="#00B2E3"/>
  <path d="M31.2 0H23.8V7.4H31.2V0Z" fill="#00B2E3"/>
  <path d="M31.2 7.8H23.8V15.2H31.2V7.8Z" fill="#00B2E3"/>
  <path d="M23.4 7.8H16V15.2H23.4V7.8Z" fill="#99E1F4"/>
  <path d="M15.6 15.6H8.2V23H15.6V15.6Z" fill="#99E1F4"/>
  <path d="M23.4 15.6H16V23H23.4V15.6Z" fill="#00B2E3"/>
  <path d="M49.6 27.6C48.9 27.3 48.3 26.9 47.8 26.4L49.5 24.4C50.3 25.3 51.5 25.8 52.8 25.7C53.9 25.7 54.4 25.3 54.4 24.7C54.4 24.4 54.3 24.1 54 23.9C53.6 23.6 53.1 23.5 52.6 23.5H51.1C50.3 23.5 49.4 23.3 48.7 22.9C47.9 22.4 47.4 21.5 47.4 20.5C47.4 19.3 47.9 18.2 48.8 17.5C49.8 16.8 51 16.4 52.2 16.5C53.7 16.5 55.2 17 56.4 18L54.9 20.1C54.2 19.5 53.3 19.1 52.3 19C51.3 19 50.7 19.3 50.7 19.9C50.7 20.1 50.8 20.4 51 20.6C51.4 20.8 51.8 20.9 52.3 20.9H53.8C54.7 20.9 55.5 21.1 56.3 21.5C57.1 22 57.6 22.9 57.6 23.9C57.6 25 57.2 26.1 56.4 26.9C55.4 27.6 54.2 28 53 28C51.8 28 50.7 27.9 49.6 27.6Z" fill="#1A262E"/>
  <path d="M62.6 16.7C63.7 16.7 64.8 16.9 65.8 17.4C66.7 17.9 67.4 18.6 67.9 19.5C68.4 20.5 68.7 21.6 68.7 22.8C68.7 24 68.4 25.1 67.9 26.1C67.4 27 66.7 27.7 65.8 28.2C64.8 28.7 63.7 29 62.6 29C61.5 29 60.4 28.8 59.4 28.3C58.5 27.8 57.8 27 57.3 26.1C56.8 25.1 56.5 24 56.5 22.8C56.5 21.6 56.8 20.5 57.3 19.5C57.8 18.6 58.5 17.8 59.4 17.3C60.4 16.9 61.5 16.7 62.6 16.7ZM62.6 26.1C63.4 26.1 64.1 25.8 64.7 25.2C65.2 24.5 65.5 23.7 65.5 22.8C65.5 21.9 65.3 21 64.7 20.4C64.1 19.7 63.4 19.4 62.6 19.4C61.8 19.4 61.1 19.7 60.5 20.4C60 21 59.7 21.9 59.7 22.8C59.7 23.7 59.9 24.5 60.5 25.2C61.1 25.8 61.8 26.1 62.6 26.1Z" fill="#1A262E"/>
  <path d="M75.5 16.7C76.4 16.7 77.3 16.9 78.1 17.3C78.9 17.7 79.5 18.4 79.9 19.2C80.3 20.1 80.5 21.1 80.5 22.1V28.6H77.5V22.6C77.5 21.7 77.3 21 76.9 20.5C76.5 20 75.9 19.8 75.2 19.8C74.4 19.8 73.7 20.1 73.2 20.6C72.7 21.2 72.4 22.1 72.4 23.2V28.6H69.4V16.9H72.3V18.2C72.7 17.7 73.3 17.3 73.9 17.1C74.4 16.8 75 16.7 75.5 16.7Z" fill="#1A262E"/>
  <path d="M86.2 19.7V24.8C86.2 25.2 86.3 25.5 86.5 25.7C86.8 25.9 87.1 26 87.5 26H88.7V28.7H86.8C84.2 28.7 82.9 27.4 82.9 24.9V19.7H81.4V17H82.9V14.2H86V17H88.7V19.6H86.2V19.7Z" fill="#1A262E"/>
  <path d="M99.1 16.9V28.6H96.3V27.3C95.5 28.3 94.2 28.9 92.8 28.8C91.8 28.8 90.9 28.6 90.1 28.1C89.4 27.6 88.7 26.9 88.3 26.1C87.9 25.1 87.7 24.1 87.7 23.1C87.7 22.1 87.9 21.1 88.3 20.1C88.7 19.3 89.3 18.6 90.1 18.1C90.9 17.6 91.8 17.3 92.8 17.3C94.1 17.3 95.3 17.8 96.1 18.7V16.8H99.1V16.9ZM93.8 26.1C94.6 26.1 95.3 25.8 95.9 25.2C96.4 24.6 96.7 23.7 96.7 22.8C96.7 21.9 96.5 21 95.9 20.4C95.3 19.7 94.6 19.4 93.8 19.4C93 19.4 92.3 19.7 91.7 20.4C91.2 21 90.9 21.8 90.9 22.8C90.9 23.7 91.1 24.6 91.7 25.2C92.3 25.8 93 26.1 93.8 26.1Z" fill="#1A262E"/>
  <path d="M105.9 28.8C104.8 28.8 103.7 28.6 102.7 28.1C101.8 27.6 101.1 26.9 100.6 26C100.1 25 99.8 23.9 99.8 22.8C99.8 21.7 100.1 20.6 100.6 19.6C101.1 18.7 101.8 18 102.7 17.5C103.7 17 104.8 16.8 105.9 16.8C107.2 16.8 108.4 17.1 109.4 17.8C110.4 18.5 111.2 19.6 111.5 20.8L108.6 21.9C108.4 21.2 108.1 20.7 107.6 20.3C107.1 19.9 106.5 19.7 105.9 19.7C105.1 19.7 104.4 20 103.8 20.6C103.3 21.3 103 22.1 103 23C103 23.9 103.2 24.8 103.8 25.4C104.4 26 105.1 26.3 105.9 26.3C106.5 26.3 107.1 26.1 107.6 25.7C108.1 25.3 108.5 24.8 108.6 24.1L111.5 25.2C111.2 26.4 110.5 27.4 109.4 28.1C108.4 28.6 107.2 28.8 105.9 28.8Z" fill="#1A262E"/>
  <path d="M117.5 28.8C116.4 28.8 115.3 28.6 114.3 28.1C113.4 27.6 112.7 26.9 112.2 26C111.7 25 111.4 23.9 111.4 22.8C111.4 21.7 111.7 20.6 112.2 19.6C112.7 18.7 113.4 18 114.3 17.5C115.3 17 116.4 16.8 117.5 16.8C118.9 16.8 120.2 17.2 121.3 18C122.4 18.8 123.1 20 123.4 21.3L120.5 22.4C120.2 21 119.1 20.1 117.7 20.1C116.9 20.1 116.2 20.4 115.6 21C115.1 21.7 114.8 22.5 114.8 23.4C114.8 24.3 115 25.2 115.6 25.8C116.2 26.4 116.9 26.7 117.7 26.7C119.1 26.7 120.2 25.8 120.5 24.4L123.4 25.5C123.1 26.8 122.4 28 121.3 28.8C120.2 28.5 118.9 28.8 117.5 28.8Z" fill="#1A262E"/>
  <path d="M129.4 16.7C130.3 16.7 131.2 16.9 132 17.3C132.8 17.7 133.4 18.4 133.8 19.2C134.2 20.1 134.4 21.1 134.4 22.1V28.6H131.4V22.6C131.4 21.7 131.2 21 130.8 20.5C130.4 20 129.8 19.8 129.1 19.8C128.3 19.8 127.6 20.1 127.1 20.6C126.6 21.2 126.3 22.1 126.3 23.2V28.6H123.3V16.9H126.2V18.2C126.6 17.7 127.2 17.3 127.8 17.1C128.4 16.8 128.9 16.7 129.4 16.7Z" fill="#1A262E"/>
  <path d="M140.3 28.8C139.2 28.8 138.1 28.6 137.1 28.1C136.2 27.6 135.5 26.9 135 26C134.5 25 134.2 23.9 134.2 22.8C134.2 21.7 134.5 20.6 135 19.6C135.5 18.7 136.2 18 137.1 17.5C138.1 17 139.2 16.8 140.3 16.8C141.4 16.8 142.5 17 143.5 17.5C144.4 18 145.1 18.7 145.6 19.6C146.1 20.6 146.4 21.7 146.4 22.8C146.4 23.9 146.1 25 145.6 26C145.1 27 144.4 27.7 143.5 28.2C142.5 28.6 141.4 28.8 140.3 28.8ZM140.3 26.1C141.1 26.1 141.8 25.8 142.4 25.2C142.9 24.6 143.2 23.7 143.2 22.8C143.2 21.9 143 21 142.4 20.4C141.8 19.7 141.1 19.4 140.3 19.4C139.5 19.4 138.8 19.7 138.2 20.4C137.7 21 137.4 21.9 137.4 22.8C137.4 23.7 137.6 24.5 138.2 25.2C138.8 25.8 139.5 26.1 140.3 26.1Z" fill="#1A262E"/>
</svg>