<?xml version="1.0" encoding="UTF-8"?>
<svg xmlns="http://www.w3.org/2000/svg" viewBox="0 0 250 104" fill="#635BFF">
  <path d="M35.58,28.2A12.73,12.73,0,0,0,22.5,40.78V54.1A12.73,12.73,0,0,0,35.58,66.69c7.43,0,12.9-5.49,12.9-12.59V40.78C48.48,33.69,43,28.2,35.58,28.2Zm6.92,25.9c0,3.77-2.86,6.92-6.92,6.92a7,7,0,0,1-7.1-6.92V40.78a7,7,0,0,1,7.1-6.92c4.06,0,6.92,3.15,6.92,6.92ZM55.93,15.53V65.25h6V15.53ZM78.31,28.2a12.73,12.73,0,0,0-13.08,12.58V54.1A12.73,12.73,0,0,0,78.31,66.69c7.43,0,12.91-5.49,12.91-12.59V40.78C91.22,33.69,85.75,28.2,78.31,28.2Zm6.93,25.9c0,3.77-2.87,6.92-6.93,6.92a7,7,0,0,1-7.09-6.92V40.78a7,7,0,0,1,7.09-6.92c4.06,0,6.93,3.15,6.93,6.92ZM124.05,29.64v3.55A11.31,11.31,0,0,0,113.8,28.2c-7.43,0-13.25,5.85-13.25,13.44s5.82,13.43,13.25,13.43a11.31,11.31,0,0,0,10.25-5v3.55c0,3.95-3.39,6.82-7.63,6.82a7.44,7.44,0,0,1-7.09-4.35l-5.46,2.33a13.38,13.38,0,0,0,12.55,8c7.27,0,13.61-4.61,13.61-12.8V29.64Zm-9.16,19.45c-4.06,0-7.27-3-7.27-7.45s3.21-7.45,7.27-7.45c4.05,0,7.27,3,7.27,7.45S119,49.09,114.89,49.09Zm40.93-20.89h-7.81V15.53h-6V28.2H137.7v5.67h4.31v19c0,6.63,3.38,12.49,11.33,12.49h4.8V59.73h-3.2c-3.39,0-5-1.8-5-5.49V33.87h7.81v-5.67Zm12.19-13.24a3.93,3.93,0,0,0-4,3.87A4,4,0,0,0,168,22.7a3.93,3.93,0,0,0,4-3.87A3.93,3.93,0,0,0,168,15Zm-3,14.64h6v35.6h-6Zm30.12-.57a12.75,12.75,0,0,0-10.16,5V29.64h-6v35.6h6V44.83c0-4.16,3.12-8.05,7.63-8.05,4.33,0,6.75,2.78,6.75,7.13V65.24h6V42.43c0-7.92-4.92-13.26-12.27-13.26Zm32.71,0a15.57,15.57,0,0,0-13.08,6.38l5.1,2.69a9.41,9.41,0,0,1,7.8-3.84c3.74,0,7.47,2.51,7.47,6.56v.95c-2.34-1.28-5.1-2-8.12-2-7.45,0-14,4.15-14,11.45,0,6.83,5.63,11.16,12.55,11.16a11.93,11.93,0,0,0,9.52-4.24v3.52h5.82V42.05c0-9.63-6.92-13.81-13.06-13.81Zm-5.65,28c0-3.76,3.92-5.76,8-5.76a13.35,13.35,0,0,1,6.4,1.62v1.9c0,4.43-3.93,8.29-8.31,8.29C225.62,54.67,222.14,52.35,222.14,47.68Z"/>
</svg>